<svg id="visual" viewBox="0 0 960 540" width="960" height="540" xmlns="http://www.w3.org/2000/svg" xmlns:xlink="http://www.w3.org/1999/xlink" version="1.1"><g stroke-width="1" stroke-linejoin="bevel"><path d="M503 264L533 201L483 225Z" fill="#007471" stroke="#007471"></path><path d="M616 192L541 191L533 201Z" fill="#00060c" stroke="#00060c"></path><path d="M533 201L534 139L483 225Z" fill="#007471" stroke="#007471"></path><path d="M541 191L534 139L533 201Z" fill="#00060c" stroke="#00060c"></path><path d="M541 191L552 143L534 139Z" fill="#09434e" stroke="#09434e"></path><path d="M632 289L616 192L533 201Z" fill="#0e343f" stroke="#0e343f"></path><path d="M541 191L616 192L552 143Z" fill="#006368" stroke="#006368"></path><path d="M398 181L417 301L483 225Z" fill="#00957b" stroke="#00957b"></path><path d="M483 225L417 301L503 264Z" fill="#09434e" stroke="#09434e"></path><path d="M428 322L480 349L503 264Z" fill="#00060c" stroke="#00060c"></path><path d="M503 264L632 289L533 201Z" fill="#09434e" stroke="#09434e"></path><path d="M480 349L531 356L503 264Z" fill="#09434e" stroke="#09434e"></path><path d="M417 301L428 322L503 264Z" fill="#29a67c" stroke="#29a67c"></path><path d="M552 362L632 289L503 264Z" fill="#0d181e" stroke="#0d181e"></path><path d="M409 127L398 181L483 225Z" fill="#0d181e" stroke="#0d181e"></path><path d="M580 408L552 362L516 425Z" fill="#00060c" stroke="#00060c"></path><path d="M531 356L552 362L503 264Z" fill="#00957b" stroke="#00957b"></path><path d="M632 289L653 204L616 192Z" fill="#00060c" stroke="#00060c"></path><path d="M616 192L589 109L552 143Z" fill="#0d181e" stroke="#0d181e"></path><path d="M430 365L478 368L480 349Z" fill="#09434e" stroke="#09434e"></path><path d="M480 349L478 368L531 356Z" fill="#0d181e" stroke="#0d181e"></path><path d="M552 143L589 109L534 139Z" fill="#0f252f" stroke="#0f252f"></path><path d="M534 139L409 127L483 225Z" fill="#00535c" stroke="#00535c"></path><path d="M698 139L589 109L616 192Z" fill="#0d181e" stroke="#0d181e"></path><path d="M417 301L385 294L428 322Z" fill="#006368" stroke="#006368"></path><path d="M428 322L430 365L480 349Z" fill="#008578" stroke="#008578"></path><path d="M398 181L385 294L417 301Z" fill="#09434e" stroke="#09434e"></path><path d="M589 109L491 87L534 139Z" fill="#09434e" stroke="#09434e"></path><path d="M491 87L409 127L534 139Z" fill="#008578" stroke="#008578"></path><path d="M409 127L374 170L398 181Z" fill="#29a67c" stroke="#29a67c"></path><path d="M398 181L339 238L385 294Z" fill="#09434e" stroke="#09434e"></path><path d="M420 372L430 365L428 322Z" fill="#29a67c" stroke="#29a67c"></path><path d="M371 377L420 372L428 322Z" fill="#29a67c" stroke="#29a67c"></path><path d="M430 365L420 372L478 368Z" fill="#007471" stroke="#007471"></path><path d="M329 170L350 189L374 170Z" fill="#006368" stroke="#006368"></path><path d="M374 170L350 189L398 181Z" fill="#006368" stroke="#006368"></path><path d="M350 189L339 238L398 181Z" fill="#0f252f" stroke="#0f252f"></path><path d="M385 294L371 377L428 322Z" fill="#0d181e" stroke="#0d181e"></path><path d="M491 87L397 95L409 127Z" fill="#09434e" stroke="#09434e"></path><path d="M409 127L397 95L374 170Z" fill="#006368" stroke="#006368"></path><path d="M516 425L552 362L531 356Z" fill="#0f252f" stroke="#0f252f"></path><path d="M552 362L620 418L632 289Z" fill="#0f252f" stroke="#0f252f"></path><path d="M516 425L531 356L478 368Z" fill="#0e343f" stroke="#0e343f"></path><path d="M465 453L516 425L478 368Z" fill="#00535c" stroke="#00535c"></path><path d="M746 365L711 258L632 289Z" fill="#0f252f" stroke="#0f252f"></path><path d="M632 289L711 258L653 204Z" fill="#008578" stroke="#008578"></path><path d="M653 204L698 139L616 192Z" fill="#0e343f" stroke="#0e343f"></path><path d="M516 425L576 419L580 408Z" fill="#0f252f" stroke="#0f252f"></path><path d="M580 408L620 418L552 362Z" fill="#0f252f" stroke="#0f252f"></path><path d="M307 95L329 170L374 170Z" fill="#006368" stroke="#006368"></path><path d="M350 189L329 170L339 238Z" fill="#0d181e" stroke="#0d181e"></path><path d="M267 259L334 315L339 238Z" fill="#00957b" stroke="#00957b"></path><path d="M339 238L334 315L385 294Z" fill="#0d181e" stroke="#0d181e"></path><path d="M728 192L698 139L653 204Z" fill="#007471" stroke="#007471"></path><path d="M334 315L371 377L385 294Z" fill="#00957b" stroke="#00957b"></path><path d="M420 372L465 453L478 368Z" fill="#007471" stroke="#007471"></path><path d="M698 139L648 73L589 109Z" fill="#0d181e" stroke="#0d181e"></path><path d="M589 109L542 0L491 87Z" fill="#00957b" stroke="#00957b"></path><path d="M491 87L431 43L397 95Z" fill="#0d181e" stroke="#0d181e"></path><path d="M457 0L431 43L491 87Z" fill="#00957b" stroke="#00957b"></path><path d="M261 148L279 184L329 170Z" fill="#0e343f" stroke="#0e343f"></path><path d="M647 469L620 418L576 419Z" fill="#0f252f" stroke="#0f252f"></path><path d="M576 419L620 418L580 408Z" fill="#00535c" stroke="#00535c"></path><path d="M711 258L728 192L653 204Z" fill="#00535c" stroke="#00535c"></path><path d="M698 139L716 123L648 73Z" fill="#0e343f" stroke="#0e343f"></path><path d="M745 135L716 123L698 139Z" fill="#00957b" stroke="#00957b"></path><path d="M349 437L465 453L420 372Z" fill="#29a67c" stroke="#29a67c"></path><path d="M516 425L535 491L576 419Z" fill="#0d181e" stroke="#0d181e"></path><path d="M590 0L542 0L589 109Z" fill="#00060c" stroke="#00060c"></path><path d="M542 0L499 -1L491 87Z" fill="#00957b" stroke="#00957b"></path><path d="M499 -1L457 0L491 87Z" fill="#007471" stroke="#007471"></path><path d="M307 95L374 170L397 95Z" fill="#00060c" stroke="#00060c"></path><path d="M307 95L397 95L326 58Z" fill="#006368" stroke="#006368"></path><path d="M329 170L279 184L339 238Z" fill="#008578" stroke="#008578"></path><path d="M588 -4L590 0L587 -13Z" fill="#29a67c" stroke="#29a67c"></path><path d="M648 73L590 0L589 109Z" fill="#0d181e" stroke="#0d181e"></path><path d="M542 0L587 -13L499 -1Z" fill="#00535c" stroke="#00535c"></path><path d="M587 -13L590 0L661 0Z" fill="#00060c" stroke="#00060c"></path><path d="M590 0L588 -4L542 0Z" fill="#006368" stroke="#006368"></path><path d="M499 -1L587 -13L457 0Z" fill="#0f252f" stroke="#0f252f"></path><path d="M728 192L745 135L698 139Z" fill="#00060c" stroke="#00060c"></path><path d="M716 123L750 94L648 73Z" fill="#29a67c" stroke="#29a67c"></path><path d="M769 107L745 135L815 122Z" fill="#09434e" stroke="#09434e"></path><path d="M326 58L397 95L389 0Z" fill="#00060c" stroke="#00060c"></path><path d="M279 184L267 259L339 238Z" fill="#007471" stroke="#007471"></path><path d="M334 315L289 352L371 377Z" fill="#008578" stroke="#008578"></path><path d="M661 0L590 0L648 73Z" fill="#0d181e" stroke="#0d181e"></path><path d="M588 -4L587 -13L542 0Z" fill="#00060c" stroke="#00060c"></path><path d="M250 312L289 352L334 315Z" fill="#0f252f" stroke="#0f252f"></path><path d="M371 377L349 437L420 372Z" fill="#00060c" stroke="#00060c"></path><path d="M389 0L397 95L431 43Z" fill="#007471" stroke="#007471"></path><path d="M465 453L535 491L516 425Z" fill="#00535c" stroke="#00535c"></path><path d="M241 82L285 116L307 95Z" fill="#00060c" stroke="#00060c"></path><path d="M307 95L285 116L329 170Z" fill="#29a67c" stroke="#29a67c"></path><path d="M165 261L237 288L267 259Z" fill="#09434e" stroke="#09434e"></path><path d="M676 459L746 365L620 418Z" fill="#29a67c" stroke="#29a67c"></path><path d="M620 418L746 365L632 289Z" fill="#09434e" stroke="#09434e"></path><path d="M711 258L806 237L728 192Z" fill="#29a67c" stroke="#29a67c"></path><path d="M297 420L349 437L371 377Z" fill="#0e343f" stroke="#0e343f"></path><path d="M489 540L513 540L535 491Z" fill="#0d181e" stroke="#0d181e"></path><path d="M587 -13L389 0L457 0Z" fill="#006368" stroke="#006368"></path><path d="M457 0L389 0L431 43Z" fill="#008578" stroke="#008578"></path><path d="M746 365L764 334L711 258Z" fill="#29a67c" stroke="#29a67c"></path><path d="M241 82L261 148L285 116Z" fill="#00535c" stroke="#00535c"></path><path d="M285 116L261 148L329 170Z" fill="#09434e" stroke="#09434e"></path><path d="M535 491L647 469L576 419Z" fill="#0e343f" stroke="#0e343f"></path><path d="M769 107L750 94L745 135Z" fill="#00535c" stroke="#00535c"></path><path d="M745 135L750 94L716 123Z" fill="#0d181e" stroke="#0d181e"></path><path d="M680 0L661 0L648 73Z" fill="#09434e" stroke="#09434e"></path><path d="M647 469L676 459L620 418Z" fill="#0d181e" stroke="#0d181e"></path><path d="M237 288L250 312L267 259Z" fill="#00535c" stroke="#00535c"></path><path d="M267 259L250 312L334 315Z" fill="#29a67c" stroke="#29a67c"></path><path d="M289 352L297 420L371 377Z" fill="#006368" stroke="#006368"></path><path d="M746 365L774 346L764 334Z" fill="#00957b" stroke="#00957b"></path><path d="M833 167L745 135L728 192Z" fill="#008578" stroke="#008578"></path><path d="M808 429L774 346L746 365Z" fill="#008578" stroke="#008578"></path><path d="M806 237L711 258L764 334Z" fill="#00957b" stroke="#00957b"></path><path d="M750 94L680 0L648 73Z" fill="#0d181e" stroke="#0d181e"></path><path d="M708 -12L680 0L731 0Z" fill="#00060c" stroke="#00060c"></path><path d="M661 0L708 -12L587 -13Z" fill="#0f252f" stroke="#0f252f"></path><path d="M165 261L267 259L159 177Z" fill="#09434e" stroke="#09434e"></path><path d="M863 316L806 237L764 334Z" fill="#0d181e" stroke="#0d181e"></path><path d="M254 380L289 352L250 312Z" fill="#006368" stroke="#006368"></path><path d="M254 380L297 420L289 352Z" fill="#0e343f" stroke="#0e343f"></path><path d="M389 0L330 10L326 58Z" fill="#008578" stroke="#008578"></path><path d="M326 58L241 82L307 95Z" fill="#00060c" stroke="#00060c"></path><path d="M297 420L341 474L349 437Z" fill="#29a67c" stroke="#29a67c"></path><path d="M349 437L341 474L465 453Z" fill="#008578" stroke="#008578"></path><path d="M200 367L254 380L250 312Z" fill="#00535c" stroke="#00535c"></path><path d="M321 540L344 505L341 474Z" fill="#0d181e" stroke="#0d181e"></path><path d="M489 540L535 491L465 453Z" fill="#0f252f" stroke="#0f252f"></path><path d="M535 491L593 540L647 469Z" fill="#008578" stroke="#008578"></path><path d="M686 540L738 474L676 459Z" fill="#00535c" stroke="#00535c"></path><path d="M513 540L535 540L535 491Z" fill="#09434e" stroke="#09434e"></path><path d="M461 549L489 540L465 453Z" fill="#00060c" stroke="#00060c"></path><path d="M764 42L680 0L750 94Z" fill="#007471" stroke="#007471"></path><path d="M680 0L708 -12L661 0Z" fill="#00957b" stroke="#00957b"></path><path d="M815 122L764 42L769 107Z" fill="#09434e" stroke="#09434e"></path><path d="M769 107L764 42L750 94Z" fill="#09434e" stroke="#09434e"></path><path d="M293 0L241 82L326 58Z" fill="#29a67c" stroke="#29a67c"></path><path d="M159 177L267 259L279 184Z" fill="#007471" stroke="#007471"></path><path d="M764 42L731 0L680 0Z" fill="#0d181e" stroke="#0d181e"></path><path d="M535 540L593 540L535 491Z" fill="#00060c" stroke="#00060c"></path><path d="M833 167L815 122L745 135Z" fill="#00957b" stroke="#00957b"></path><path d="M419 540L461 549L465 453Z" fill="#29a67c" stroke="#29a67c"></path><path d="M489 540L461 549L513 540Z" fill="#008578" stroke="#008578"></path><path d="M513 540L461 549L535 540Z" fill="#0f252f" stroke="#0f252f"></path><path d="M535 540L461 549L593 540Z" fill="#00957b" stroke="#00957b"></path><path d="M863 316L839 236L806 237Z" fill="#00957b" stroke="#00957b"></path><path d="M806 237L833 167L728 192Z" fill="#00535c" stroke="#00535c"></path><path d="M846 193L833 167L806 237Z" fill="#007471" stroke="#007471"></path><path d="M389 0L293 0L330 10Z" fill="#09434e" stroke="#09434e"></path><path d="M330 10L293 0L326 58Z" fill="#00060c" stroke="#00060c"></path><path d="M587 -13L293 0L389 0Z" fill="#29a67c" stroke="#29a67c"></path><path d="M399 540L419 540L465 453Z" fill="#0f252f" stroke="#0f252f"></path><path d="M256 446L341 474L297 420Z" fill="#0f252f" stroke="#0f252f"></path><path d="M341 474L399 540L465 453Z" fill="#0d181e" stroke="#0d181e"></path><path d="M676 459L738 474L746 365Z" fill="#00957b" stroke="#00957b"></path><path d="M774 346L863 316L764 334Z" fill="#00060c" stroke="#00060c"></path><path d="M665 538L676 459L647 469Z" fill="#09434e" stroke="#09434e"></path><path d="M344 505L399 540L341 474Z" fill="#0f252f" stroke="#0f252f"></path><path d="M419 540L399 540L461 549Z" fill="#007471" stroke="#007471"></path><path d="M839 236L846 193L806 237Z" fill="#0e343f" stroke="#0e343f"></path><path d="M833 167L892 159L815 122Z" fill="#006368" stroke="#006368"></path><path d="M203 112L261 148L241 82Z" fill="#0e343f" stroke="#0e343f"></path><path d="M203 112L201 118L261 148Z" fill="#006368" stroke="#006368"></path><path d="M200 367L256 446L254 380Z" fill="#0f252f" stroke="#0f252f"></path><path d="M142 47L203 112L241 82Z" fill="#09434e" stroke="#09434e"></path><path d="M200 367L250 312L237 288Z" fill="#09434e" stroke="#09434e"></path><path d="M254 380L256 446L297 420Z" fill="#008578" stroke="#008578"></path><path d="M686 540L665 538L593 540Z" fill="#00957b" stroke="#00957b"></path><path d="M593 540L665 538L647 469Z" fill="#29a67c" stroke="#29a67c"></path><path d="M839 236L860 201L846 193Z" fill="#006368" stroke="#006368"></path><path d="M846 193L892 159L833 167Z" fill="#00060c" stroke="#00060c"></path><path d="M960 252L860 201L839 236Z" fill="#008578" stroke="#008578"></path><path d="M160 351L200 367L237 288Z" fill="#0d181e" stroke="#0d181e"></path><path d="M461 549L686 540L593 540Z" fill="#006368" stroke="#006368"></path><path d="M665 538L686 540L676 459Z" fill="#008578" stroke="#008578"></path><path d="M795 449L746 365L738 474Z" fill="#29a67c" stroke="#29a67c"></path><path d="M795 449L808 429L746 365Z" fill="#008578" stroke="#008578"></path><path d="M817 13L781 0L764 42Z" fill="#006368" stroke="#006368"></path><path d="M764 42L781 0L731 0Z" fill="#008578" stroke="#008578"></path><path d="M731 0L781 0L708 -12Z" fill="#00060c" stroke="#00060c"></path><path d="M817 13L764 42L815 122Z" fill="#0d181e" stroke="#0d181e"></path><path d="M804 481L795 449L738 474Z" fill="#006368" stroke="#006368"></path><path d="M159 177L279 184L261 148Z" fill="#007471" stroke="#007471"></path><path d="M846 422L863 316L774 346Z" fill="#00060c" stroke="#00060c"></path><path d="M112 56L159 177L201 118Z" fill="#00957b" stroke="#00957b"></path><path d="M201 118L159 177L261 148Z" fill="#00060c" stroke="#00060c"></path><path d="M587 -13L236 0L293 0Z" fill="#007471" stroke="#007471"></path><path d="M293 0L236 0L241 82Z" fill="#00060c" stroke="#00060c"></path><path d="M203 112L142 47L201 118Z" fill="#006368" stroke="#006368"></path><path d="M399 540L321 540L461 549Z" fill="#008578" stroke="#008578"></path><path d="M344 505L321 540L399 540Z" fill="#00957b" stroke="#00957b"></path><path d="M256 446L321 540L341 474Z" fill="#008578" stroke="#008578"></path><path d="M213 515L321 540L256 446Z" fill="#09434e" stroke="#09434e"></path><path d="M914 116L817 13L815 122Z" fill="#0d181e" stroke="#0d181e"></path><path d="M160 351L174 385L200 367Z" fill="#0e343f" stroke="#0e343f"></path><path d="M200 367L174 385L256 446Z" fill="#0f252f" stroke="#0f252f"></path><path d="M115 282L160 351L165 261Z" fill="#09434e" stroke="#09434e"></path><path d="M165 261L160 351L237 288Z" fill="#0f252f" stroke="#0f252f"></path><path d="M159 177L138 238L165 261Z" fill="#006368" stroke="#006368"></path><path d="M838 487L846 422L808 429Z" fill="#006368" stroke="#006368"></path><path d="M808 429L846 422L774 346Z" fill="#00535c" stroke="#00535c"></path><path d="M838 487L808 429L795 449Z" fill="#09434e" stroke="#09434e"></path><path d="M757 540L804 481L738 474Z" fill="#007471" stroke="#007471"></path><path d="M960 191L892 159L860 201Z" fill="#00060c" stroke="#00060c"></path><path d="M860 201L892 159L846 193Z" fill="#00535c" stroke="#00535c"></path><path d="M914 116L892 159L960 144Z" fill="#09434e" stroke="#09434e"></path><path d="M461 549L754 540L686 540Z" fill="#0f252f" stroke="#0f252f"></path><path d="M686 540L754 540L738 474Z" fill="#09434e" stroke="#09434e"></path><path d="M461 549L757 540L754 540Z" fill="#00535c" stroke="#00535c"></path><path d="M754 540L757 540L738 474Z" fill="#09434e" stroke="#09434e"></path><path d="M587 -13L200 0L236 0Z" fill="#0d181e" stroke="#0d181e"></path><path d="M236 0L200 0L241 82Z" fill="#0f252f" stroke="#0f252f"></path><path d="M86 298L115 282L71 205Z" fill="#0d181e" stroke="#0d181e"></path><path d="M115 282L138 238L71 205Z" fill="#09434e" stroke="#09434e"></path><path d="M138 238L115 282L165 261Z" fill="#09434e" stroke="#09434e"></path><path d="M160 351L117 350L174 385Z" fill="#007471" stroke="#007471"></path><path d="M840 489L838 487L804 481Z" fill="#09434e" stroke="#09434e"></path><path d="M804 481L838 487L795 449Z" fill="#007471" stroke="#007471"></path><path d="M846 422L922 328L863 316Z" fill="#00535c" stroke="#00535c"></path><path d="M803 540L840 489L804 481Z" fill="#00957b" stroke="#00957b"></path><path d="M838 487L893 438L846 422Z" fill="#0f252f" stroke="#0f252f"></path><path d="M960 252L839 236L960 263Z" fill="#29a67c" stroke="#29a67c"></path><path d="M892 159L914 116L815 122Z" fill="#006368" stroke="#006368"></path><path d="M189 540L213 515L137 540Z" fill="#09434e" stroke="#09434e"></path><path d="M174 385L213 515L256 446Z" fill="#09434e" stroke="#09434e"></path><path d="M893 438L922 328L846 422Z" fill="#00060c" stroke="#00060c"></path><path d="M115 282L117 350L160 351Z" fill="#0f252f" stroke="#0f252f"></path><path d="M200 0L142 47L241 82Z" fill="#0d181e" stroke="#0d181e"></path><path d="M757 540L803 540L804 481Z" fill="#00957b" stroke="#00957b"></path><path d="M461 549L803 540L757 540Z" fill="#0e343f" stroke="#0e343f"></path><path d="M884 540L893 438L840 489Z" fill="#00535c" stroke="#00535c"></path><path d="M840 489L893 438L838 487Z" fill="#008578" stroke="#008578"></path><path d="M71 205L138 238L159 177Z" fill="#0d181e" stroke="#0d181e"></path><path d="M115 282L86 298L117 350Z" fill="#0e343f" stroke="#0e343f"></path><path d="M104 412L213 515L174 385Z" fill="#00535c" stroke="#00535c"></path><path d="M914 116L889 0L817 13Z" fill="#00060c" stroke="#00060c"></path><path d="M817 13L889 0L781 0Z" fill="#006368" stroke="#006368"></path><path d="M781 0L889 0L708 -12Z" fill="#29a67c" stroke="#29a67c"></path><path d="M200 0L122 41L142 47Z" fill="#0e343f" stroke="#0e343f"></path><path d="M142 47L112 56L201 118Z" fill="#00957b" stroke="#00957b"></path><path d="M122 41L112 56L142 47Z" fill="#007471" stroke="#007471"></path><path d="M960 263L863 316L922 328Z" fill="#0e343f" stroke="#0e343f"></path><path d="M960 263L839 236L863 316Z" fill="#0d181e" stroke="#0d181e"></path><path d="M914 116L951 80L889 0Z" fill="#29a67c" stroke="#29a67c"></path><path d="M960 299L960 263L922 328Z" fill="#008578" stroke="#008578"></path><path d="M960 252L960 191L860 201Z" fill="#09434e" stroke="#09434e"></path><path d="M61 129L71 205L159 177Z" fill="#09434e" stroke="#09434e"></path><path d="M960 383L960 299L922 328Z" fill="#007471" stroke="#007471"></path><path d="M104 412L174 385L117 350Z" fill="#0e343f" stroke="#0e343f"></path><path d="M213 515L189 540L321 540Z" fill="#0d181e" stroke="#0d181e"></path><path d="M321 540L189 540L461 549Z" fill="#29a67c" stroke="#29a67c"></path><path d="M65 339L104 412L117 350Z" fill="#00957b" stroke="#00957b"></path><path d="M65 339L117 350L86 298Z" fill="#0e343f" stroke="#0e343f"></path><path d="M960 191L960 144L892 159Z" fill="#00060c" stroke="#00060c"></path><path d="M960 252L970 176L960 191Z" fill="#0f252f" stroke="#0f252f"></path><path d="M960 191L970 176L960 144Z" fill="#00535c" stroke="#00535c"></path><path d="M960 263L970 176L960 252Z" fill="#00535c" stroke="#00535c"></path><path d="M960 299L970 176L960 263Z" fill="#09434e" stroke="#09434e"></path><path d="M970 176L960 120L960 144Z" fill="#09434e" stroke="#09434e"></path><path d="M960 144L960 120L914 116Z" fill="#006368" stroke="#006368"></path><path d="M960 120L951 80L914 116Z" fill="#00060c" stroke="#00060c"></path><path d="M0 304L65 339L86 298Z" fill="#00060c" stroke="#00060c"></path><path d="M951 80L923 0L889 0Z" fill="#09434e" stroke="#09434e"></path><path d="M889 0L923 0L708 -12Z" fill="#00535c" stroke="#00535c"></path><path d="M112 56L61 129L159 177Z" fill="#0f252f" stroke="#0f252f"></path><path d="M71 205L20 258L86 298Z" fill="#29a67c" stroke="#29a67c"></path><path d="M45 13L61 129L112 56Z" fill="#0e343f" stroke="#0e343f"></path><path d="M893 438L960 383L922 328Z" fill="#00957b" stroke="#00957b"></path><path d="M960 299L960 383L970 176Z" fill="#0e343f" stroke="#0e343f"></path><path d="M960 442L960 383L893 438Z" fill="#29a67c" stroke="#29a67c"></path><path d="M461 549L884 540L803 540Z" fill="#29a67c" stroke="#29a67c"></path><path d="M803 540L884 540L840 489Z" fill="#008578" stroke="#008578"></path><path d="M75 487L137 540L104 412Z" fill="#007471" stroke="#007471"></path><path d="M104 412L137 540L213 515Z" fill="#0e343f" stroke="#0e343f"></path><path d="M189 540L-8 551L461 549Z" fill="#008578" stroke="#008578"></path><path d="M960 473L960 442L893 438Z" fill="#0f252f" stroke="#0f252f"></path><path d="M960 383L960 442L970 176Z" fill="#00060c" stroke="#00060c"></path><path d="M200 0L81 0L122 41Z" fill="#006368" stroke="#006368"></path><path d="M122 41L81 0L112 56Z" fill="#29a67c" stroke="#29a67c"></path><path d="M587 -13L81 0L200 0Z" fill="#0d181e" stroke="#0d181e"></path><path d="M0 184L20 258L71 205Z" fill="#09434e" stroke="#09434e"></path><path d="M0 443L75 487L104 412Z" fill="#0e343f" stroke="#0e343f"></path><path d="M0 278L20 258L0 184Z" fill="#0d181e" stroke="#0d181e"></path><path d="M951 80L960 0L923 0Z" fill="#006368" stroke="#006368"></path><path d="M923 0L960 0L708 -12Z" fill="#007471" stroke="#007471"></path><path d="M960 120L960 0L951 80Z" fill="#006368" stroke="#006368"></path><path d="M970 176L960 0L960 120Z" fill="#29a67c" stroke="#29a67c"></path><path d="M884 540L960 473L893 438Z" fill="#008578" stroke="#008578"></path><path d="M960 442L960 473L970 176Z" fill="#008578" stroke="#008578"></path><path d="M587 -13L64 0L81 0Z" fill="#29a67c" stroke="#29a67c"></path><path d="M81 0L45 13L112 56Z" fill="#00060c" stroke="#00060c"></path><path d="M-8 374L104 412L65 339Z" fill="#00060c" stroke="#00060c"></path><path d="M0 184L71 205L61 129Z" fill="#00060c" stroke="#00060c"></path><path d="M20 258L0 304L86 298Z" fill="#00535c" stroke="#00535c"></path><path d="M0 134L0 184L61 129Z" fill="#008578" stroke="#008578"></path><path d="M64 0L45 13L81 0Z" fill="#0d181e" stroke="#0d181e"></path><path d="M0 278L0 304L20 258Z" fill="#00535c" stroke="#00535c"></path><path d="M0 304L0 319L65 339Z" fill="#09434e" stroke="#09434e"></path><path d="M81 540L92 540L75 487Z" fill="#0f252f" stroke="#0f252f"></path><path d="M75 487L92 540L137 540Z" fill="#0d181e" stroke="#0d181e"></path><path d="M137 540L-8 551L189 540Z" fill="#0e343f" stroke="#0e343f"></path><path d="M0 21L0 134L61 129Z" fill="#00535c" stroke="#00535c"></path><path d="M0 540L81 540L75 487Z" fill="#006368" stroke="#006368"></path><path d="M92 540L-8 551L137 540Z" fill="#00957b" stroke="#00957b"></path><path d="M461 549L960 540L884 540Z" fill="#00957b" stroke="#00957b"></path><path d="M884 540L960 540L960 473Z" fill="#0e343f" stroke="#0e343f"></path><path d="M960 473L960 540L970 176Z" fill="#09434e" stroke="#09434e"></path><path d="M0 304L-8 374L0 319Z" fill="#0e343f" stroke="#0e343f"></path><path d="M0 319L-8 374L65 339Z" fill="#0d181e" stroke="#0d181e"></path><path d="M0 278L-8 374L0 304Z" fill="#007471" stroke="#007471"></path><path d="M0 184L-8 374L0 278Z" fill="#29a67c" stroke="#29a67c"></path><path d="M0 134L-8 374L0 184Z" fill="#0d181e" stroke="#0d181e"></path><path d="M-8 374L0 443L104 412Z" fill="#008578" stroke="#008578"></path><path d="M0 0L0 21L45 13Z" fill="#0e343f" stroke="#0e343f"></path><path d="M45 13L0 21L61 129Z" fill="#00957b" stroke="#00957b"></path><path d="M0 134L0 21L-8 374Z" fill="#00957b" stroke="#00957b"></path><path d="M587 -13L0 0L64 0Z" fill="#0d181e" stroke="#0d181e"></path><path d="M64 0L0 0L45 13Z" fill="#006368" stroke="#006368"></path><path d="M0 21L0 0L-8 374Z" fill="#0d181e" stroke="#0d181e"></path><path d="M-8 551L0 491L0 443Z" fill="#29a67c" stroke="#29a67c"></path><path d="M0 443L0 491L75 487Z" fill="#007471" stroke="#007471"></path><path d="M-8 551L0 540L0 491Z" fill="#007471" stroke="#007471"></path><path d="M0 491L0 540L75 487Z" fill="#008578" stroke="#008578"></path><path d="M81 540L-8 551L92 540Z" fill="#008578" stroke="#008578"></path><path d="M-8 374L-8 551L0 443Z" fill="#0e343f" stroke="#0e343f"></path><path d="M0 540L-8 551L81 540Z" fill="#0d181e" stroke="#0d181e"></path></g></svg>